<svg id="Capa_1" enable-background="new 0 0 512 512" height="512" viewBox="0 0 512 512" width="512" xmlns="http://www.w3.org/2000/svg"><g><path d="m383.778 72.349c-2.93-2.928-7.678-2.928-10.607 0l-22.948 22.948-22.948-22.948c-2.929-2.927-7.677-2.929-10.607 0-2.929 2.93-2.929 7.678 0 10.607l22.948 22.948-22.948 22.948c-2.929 2.93-2.929 7.678 0 10.607 2.931 2.929 7.678 2.928 10.607 0l22.948-22.948 22.948 22.948c2.931 2.929 7.678 2.928 10.607 0 2.929-2.93 2.929-7.678 0-10.607l-22.948-22.948 22.948-22.948c2.928-2.929 2.928-7.677 0-10.607z"/><path d="m510.677 101.65-43.693-63.428c-1.4-2.031-3.71-3.245-6.177-3.245h-52.346c-4.143 0-7.5 3.357-7.5 7.5s3.357 7.5 7.5 7.5h48.405l38.526 55.928-38.526 55.928h-253.422v-111.856h175.03c4.143 0 7.5-3.357 7.5-7.5s-3.357-7.5-7.5-7.5h-103.095v-8.188c0-14.771-12.016-26.789-26.788-26.789s-26.788 12.018-26.788 26.788v8.188h-25.859c-4.143 0-7.5 3.357-7.5 7.5v126.855c0 4.143 3.357 7.5 7.5 7.5h25.859v31.961h-101.887c-4.143 0-7.5 3.357-7.5 7.5s3.357 7.5 7.5 7.5h188.641v111.855h-253.422l-38.527-55.928 38.527-55.928h34.794c4.143 0 7.5-3.357 7.5-7.5s-3.357-7.5-7.5-7.5h-38.734c-2.467 0-4.776 1.214-6.177 3.245l-43.695 63.43c-1.765 2.562-1.765 5.947 0 8.51l43.694 63.428c1.4 2.031 3.71 3.245 6.177 3.245h170.608v146.351h-70.689l3.651-3.969c2.805-3.049 2.606-7.794-.441-10.598-3.049-2.806-7.794-2.607-10.598.441l-8.781 9.546-8.803-13.104c-2.309-3.438-6.968-4.355-10.407-2.044-3.438 2.31-4.354 6.969-2.044 10.407l6.261 9.32h-26.492c-4.143 0-7.5 3.357-7.5 7.5s3.357 7.5 7.5 7.5h325.082c4.143 0 7.5-3.357 7.5-7.5s-3.357-7.5-7.5-7.5h-62.353l3.651-3.969c2.805-3.049 2.606-7.794-.441-10.598-3.049-2.806-7.794-2.607-10.598.441l-8.781 9.546-8.803-13.104c-2.309-3.438-6.968-4.355-10.407-2.044-3.438 2.31-4.354 6.969-2.044 10.407l6.261 9.32h-49.646v-48.14c0-4.143-3.357-7.5-7.5-7.5s-7.5 3.357-7.5 7.5v48.142h-23.576v-146.351h23.576v68.226c0 4.143 3.357 7.5 7.5 7.5s7.5-3.357 7.5-7.5v-68.226h40.678c4.143 0 7.5-3.357 7.5-7.5v-126.856c0-4.143-3.357-7.5-7.5-7.5h-40.678v-31.961h185.428c2.467 0 4.776-1.214 6.177-3.245l43.693-63.428c1.764-2.562 1.764-5.947-.001-8.509zm-273.874-74.862c0-6.5 5.288-11.788 11.788-11.788s11.788 5.288 11.788 11.788v8.188h-23.576zm23.576 182.005h-23.576v-31.961h23.576z"/><path d="m149.697 309.307c1.919 0 3.839-.732 5.304-2.196l44.172-44.172c2.929-2.93 2.929-7.678 0-10.607-2.93-2.928-7.678-2.928-10.607 0l-38.869 38.868-14.704-14.705c-2.93-2.928-7.678-2.928-10.607 0-2.929 2.93-2.929 7.678 0 10.607l20.008 20.008c1.464 1.464 3.384 2.197 5.303 2.197z"/></g></svg>