<svg width="150" height="50" viewBox="0 0 150 50" fill="none" xmlns="http://www.w3.org/2000/svg">
<path d="M5.28125 49V22.5H0.375V15.1875H5.28125V12.5C5.28125 8.64583 6.41667 5.65625 8.6875 3.53125C10.9583 1.40625 14.1458 0.34375 18.25 0.34375C19.75 0.34375 21.3958 0.5625 23.1875 1L23.2188 8.75C22.5729 8.5625 21.7083 8.46875 20.625 8.46875C17.4375 8.46875 15.8438 9.84375 15.8438 12.5938V15.1875H22.4375V22.5H15.8438V49H5.28125ZM40.1344 49H32.2125V13H40.1344V49ZM64.9266 46.2578C63.2547 48.3984 60.9969 49.4688 58.1531 49.4688C55.3719 49.4688 53.2625 48.6641 51.825 47.0547C50.4031 45.4297 49.6922 43.1016 49.6922 40.0703V23.6406H57.5906V40.1172C57.5906 42.2891 58.6453 43.375 60.7547 43.375C62.5672 43.375 63.8563 42.7266 64.6219 41.4297V23.6406H72.5672V49H65.1609L64.9266 46.2578ZM91.9922 30.625L95.6719 23.6406H103.875L97.1953 35.9922L104.203 49H95.9531L91.9688 41.5L88.0547 49H79.7578L86.7891 35.9922L80.1328 23.6406H88.4297L91.9922 30.625ZM121.495 30.625L125.175 23.6406H133.378L126.698 35.9922L133.706 49H125.456L121.472 41.5L117.558 49H109.261L116.292 35.9922L109.636 23.6406H117.933L121.495 30.625ZM145.608 41.3359C146.858 41.3359 147.897 41.7109 148.725 42.4609C149.553 43.1953 149.967 44.1406 149.967 45.2969C149.967 46.4531 149.553 47.4062 148.725 48.1562C147.897 48.8906 146.858 49.2578 145.608 49.2578C144.342 49.2578 143.295 48.8828 142.467 48.1328C141.655 47.3828 141.248 46.4375 141.248 45.2969C141.248 44.1562 141.655 43.2109 142.467 42.4609C143.295 41.7109 144.342 41.3359 145.608 41.3359Z" fill="black"/>
</svg>
