<svg width="70" height="20" viewBox="0 0 70 20" fill="none" xmlns="http://www.w3.org/2000/svg">
<path d="M2.22656 19V8.80469H0.339844V6.32031H2.22656V5.24219C2.22656 3.82031 2.63281 2.71875 3.44531 1.9375C4.26562 1.14844 5.41016 0.753906 6.87891 0.753906C7.34766 0.753906 7.92188 0.832031 8.60156 0.988281L8.56641 3.61328C8.28516 3.54297 7.94141 3.50781 7.53516 3.50781C6.26172 3.50781 5.625 4.10547 5.625 5.30078V6.32031H8.14453V8.80469H5.625V19H2.22656ZM15.8766 19H12.4781V1H15.8766V19ZM28.4311 17.7109C27.5952 18.7266 26.4389 19.2344 24.9623 19.2344C23.603 19.2344 22.5639 18.8438 21.8452 18.0625C21.1342 17.2812 20.7709 16.1367 20.7553 14.6289V6.32031H24.142V14.5117C24.142 15.832 24.7436 16.4922 25.9467 16.4922C27.0952 16.4922 27.8842 16.0938 28.3139 15.2969V6.32031H31.7123V19H28.5248L28.4311 17.7109ZM41.2552 10.1055L43.388 6.32031H47.0091L43.3997 12.5312L47.1614 19H43.5286L41.2669 15.0156L39.0169 19H35.3723L39.1341 12.5312L35.5364 6.32031H39.1692L41.2552 10.1055ZM55.6261 10.1055L57.7589 6.32031H61.38L57.7706 12.5312L61.5323 19H57.8995L55.6378 15.0156L53.3878 19H49.7433L53.505 12.5312L49.9073 6.32031H53.5402L55.6261 10.1055ZM65.3447 17.3359C65.3447 16.7969 65.5244 16.3594 65.8838 16.0234C66.2509 15.6875 66.708 15.5195 67.2548 15.5195C67.8095 15.5195 68.2666 15.6875 68.6259 16.0234C68.9931 16.3594 69.1767 16.7969 69.1767 17.3359C69.1767 17.8672 68.997 18.3008 68.6377 18.6367C68.2783 18.9648 67.8173 19.1289 67.2548 19.1289C66.7002 19.1289 66.2431 18.9648 65.8838 18.6367C65.5244 18.3008 65.3447 17.8672 65.3447 17.3359Z" fill="black"/>
</svg>
