<svg width="47" height="47" viewBox="0 0 47 47" fill="none" xmlns="http://www.w3.org/2000/svg">
<path d="M30.146 27.553C27.375 25.836 25.421 23.09 24.669 19.946H13.148V13.417C13.148 9.718 16.151 6.706 19.845 6.706C22.637 6.706 25.031 8.43 26.033 10.867C27.013 9.204 28.383 7.762 30.088 6.689L31.059 6.079C28.662 2.423 24.533 0 19.846 0C12.451 0 6.437 6.018 6.437 13.416V19.945H5.76C2.989 19.945 0.727997 22.21 0.727997 24.979V41.97C0.727997 44.733 2.989 46.999 5.76 46.999H31.429C30.632 45.922 30.147 44.605 30.147 43.168L30.146 27.553Z" fill="url(#paint0_linear)"/>
<path d="M41.742 8.927V17.047C41.742 17.047 39.396 20 36.619 20C33.842 20 31.498 17.047 31.498 17.047V8.927C28.778 10.636 26.967 13.652 26.967 17.098C26.967 21.068 29.365 24.476 32.791 25.956V43.169C32.791 45.285 34.504 47 36.621 47C38.735 47 40.449 45.285 40.449 43.169V25.956C43.875 24.475 46.272 21.067 46.272 17.098C46.272 13.649 44.46 10.633 41.742 8.927Z" fill="url(#paint1_linear)"/>
<defs>
<linearGradient id="paint0_linear" x1="16.0785" y1="0" x2="16.0785" y2="46.999" gradientUnits="userSpaceOnUse">
<stop stop-color="#DD8728"/>
<stop offset="1" stop-color="#C8873F"/>
</linearGradient>
<linearGradient id="paint1_linear" x1="36.6195" y1="8.927" x2="36.6195" y2="47" gradientUnits="userSpaceOnUse">
<stop stop-color="#9FB0B0"/>
<stop offset="1" stop-color="#E1E1E1"/>
</linearGradient>
</defs>
</svg>
